<svg aria-hidden="true" style="position: absolute; width: 0; height: 0; overflow: hidden;" version="1.1" xmlns="http://www.w3.org/2000/svg" xmlns:xlink="http://www.w3.org/1999/xlink">
<defs>
<symbol id="icon-x" viewBox="0 0 32 32">
<path d="M24.325 3h4.411l-9.636 11.013 11.336 14.987h-8.876l-6.952-9.089-7.955 9.089h-4.413l10.307-11.78-10.875-14.22h9.101l6.284 8.308zM22.777 26.36h2.444l-15.776-20.859h-2.623z"></path>
</symbol>
<symbol id="icon-spotlight" viewBox="0 0 32 32">
<path d="M20.168 8.544c0.011 0.135 0.011 0.259 0 0.393-0.045 0.785-0.393 1.369-0.875 1.851-0.501 0.497-1.19 0.805-1.951 0.808h-0.001c-0.022 0.001-0.047 0.001-0.072 0.001-0.746 0-1.424-0.291-1.926-0.765l0.001 0.001c-0.561-0.519-0.911-1.26-0.911-2.082 0-0.738 0.282-1.411 0.745-1.915l-0.002 0.002 0.135-0.135c0.471-0.46 1.009-0.729 1.829-0.808 0.060-0.005 0.129-0.007 0.199-0.007 0.738 0 1.41 0.284 1.912 0.749l-0.002-0.002c0.528 0.493 0.853 1.179 0.919 1.908zM31.455 18.261l-0.841 1.627c-0.232 0.442-0.405 0.955-0.49 1.497l-0.004 0.028-0.28 1.817c-0.251 1.617-1.259 2.954-2.643 3.656l-0.028 0.013-1.639 0.819c-0.483 0.247-0.92 0.561-1.301 0.943l-1.291 1.313c-0.896 0.907-2.139 1.469-3.514 1.469-0.285 0-0.564-0.024-0.835-0.070l0.029 0.004-1.807-0.303c-0.241-0.043-0.519-0.067-0.802-0.067s-0.561 0.024-0.831 0.071l0.029-0.004-1.807 0.303c-0.241 0.042-0.519 0.066-0.803 0.066-1.376 0-2.62-0.561-3.517-1.468l-0-0-1.291-1.313c-0.37-0.375-0.8-0.69-1.273-0.93l-0.028-0.013-1.639-0.819c-1.41-0.718-2.416-2.054-2.667-3.641l-0.004-0.028-0.28-1.817c-0.084-0.57-0.257-1.084-0.506-1.551l0.013 0.026-0.853-1.627c-0.35-0.658-0.555-1.438-0.555-2.267s0.205-1.609 0.568-2.293l-0.013 0.027 0.841-1.627c0.232-0.442 0.405-0.955 0.49-1.497l0.004-0.028 0.28-1.817c0.251-1.617 1.259-2.954 2.643-3.656l0.028-0.013 1.639-0.819c0.483-0.247 0.92-0.561 1.301-0.943l1.291-1.301c0.896-0.907 2.139-1.469 3.514-1.469 0.285 0 0.564 0.024 0.835 0.070l-0.029-0.004 1.807 0.303c0.528 0.089 1.077 0.089 1.604 0l1.807-0.303c0.241-0.042 0.519-0.066 0.803-0.066 1.376 0 2.62 0.561 3.517 1.468l0 0 1.291 1.301c0.381 0.381 0.819 0.707 1.301 0.943l1.639 0.819c1.41 0.718 2.416 2.054 2.667 3.641l0.004 0.028 0.28 1.817c0.079 0.539 0.247 1.055 0.493 1.525l0.841 1.627c0.351 0.661 0.557 1.446 0.557 2.278 0 0.823-0.202 1.6-0.558 2.282l0.013-0.027zM21.739 8.488c-0.025-0.636-0.192-1.227-0.471-1.75l0.011 0.022c-0.765-1.463-2.271-2.444-4.007-2.444-0.102 0-0.204 0.003-0.304 0.010l0.014-0.001c-0.18 0.023-0.336 0.033-0.493 0.056-0.997 0.19-1.854 0.692-2.487 1.398l-0.004 0.004c-0.703 0.769-1.134 1.796-1.134 2.925 0 0.116 0.005 0.23 0.013 0.343l-0.001-0.015c0.101 1.235 0.651 2.289 1.448 2.973 0.584 0.505 1.324 0.953 2.255 1.088 1.784 0.269 3.153-0.437 4.039-1.403 0.701-0.765 1.131-1.79 1.131-2.915 0-0.103-0.004-0.206-0.011-0.307l0.001 0.014zM8.757 17.509c0.325-0.18 0.64-0.371 0.953-0.549-0.112-1.291-0.213-2.681-0.315-3.871 1.313-0.549 2.244-1.616 2.659-3.119 0.336-1.212 0.191-2.636-0.427-3.433-0.205-0.279-0.473-0.5-0.783-0.645l-0.013-0.005c-0.539-0.201-1.189-0.045-1.639 0.145-0.266 0.121-0.495 0.255-0.707 0.412l0.011-0.008c-0.427 0.303-0.819 0.64-1.179 1.032 0.381 3.321 0.763 6.811 1.133 10.209 0.101-0.045 0.201-0.101 0.305-0.168zM8.925 7.972c0.023-0.101 0.269-0.247 0.359-0.315 0.16-0.117 0.355-0.194 0.568-0.213l0.004-0c0.617-0.023 0.763 0.505 0.796 1.1 0.023 0.315 0.023 0.628 0 0.943-0.079 1.044-0.572 1.716-1.391 2.053-0.067-0.651-0.112-1.436-0.191-2.188-0.033-0.303-0.079-0.707-0.124-1.065-0.011-0.101-0.023-0.201-0.021-0.315zM7.411 16.343c-0.145-0.617-0.338-1.155-0.582-1.665l0.021 0.049c-0.227-0.478-0.399-1.033-0.489-1.615l-0.004-0.034c-0.089-0.796 0.067-1.492 0.572-1.863-0.191-0.617-0.348-1.223-0.539-1.829-1.1 0.584-1.863 1.639-1.863 3.209 0 0.965 0.359 1.593 0.707 2.289 0.236 0.46 0.437 0.931 0.595 1.425 0.157 0.528 0.303 1.111 0.259 1.66-0.089 1.055-0.528 1.795-1.1 2.424-0.056 0.067-0.247 0.224-0.247 0.269 0.033 0.079 0.067 0.145 0.112 0.213 0.224 0.471 0.427 0.875 0.651 1.335 0.033 0.067 0.067 0.201 0.112 0.224s0.135-0.089 0.191-0.157c0.191-0.201 0.371-0.415 0.539-0.64 0.931-1.291 1.492-3.299 1.067-5.295zM11.113 18.575c0.46-1.301 0.897-2.648 1.235-4.016 0.101-0.404 0.224-0.819 0.303-1.235 0.011-0.045 0.045-0.145 0-0.168-0.595 0.18-1.212 0.336-1.795 0.528-0.247 2.031-0.853 3.837-1.537 5.531s-1.525 3.253-2.401 4.745c1.077 1.167 2.445 2.053 3.949 2.793 0.269-0.449 0.561-0.887 0.819-1.347-0.92-0.561-1.873-1.1-2.659-1.795 0.647-1.303 1.351-2.966 1.97-4.67l0.117-0.367zM14.613 14.996c-0.381-0.259-0.853-0.449-1.268-0.673-0.831 3.187-1.941 6.125-3.007 9.111 0.371 0.201 0.729 0.427 1.111 0.628 0.719-1.391 1.156-2.884 1.728-4.399 0.28-0.74 0.516-1.504 0.752-2.277s0.471-1.581 0.684-2.389zM17.845 24.32v-1.324c0-0.303-0.011-0.64-0.023-1.167-0.796 0.101-1.604 0.168-2.389 0.28-0.033 0.437-0.033 0.897-0.056 1.357 0.348 0.023 0.897-0.045 1.245-0.045 0 0.651 0 1.212 0.011 1.761 0 0.213 0.033 0.427-0.023 0.605-0.079 0.269-0.359 0.437-0.719 0.404-0.415-0.045-0.74-0.471-0.92-0.819-0.617-1.212-0.415-3.209-0.168-4.555 0.168-0.969 0.509-1.833 0.993-2.599l-0.017 0.029c0.46-0.729 1.088-1.335 1.985-1.593 0-0.371-0.023-0.875-0.045-1.291-0.011-0.191 0-0.427-0.045-0.528-0.011-0.011-0.033 0.011-0.045 0.011-0.578 0.206-1.077 0.496-1.512 0.86l0.008-0.006c-0.656 0.516-1.2 1.142-1.61 1.854l-0.016 0.031c-0.123 0.213-0.251 0.471-0.363 0.737l-0.018 0.048c-0.483 1.077-0.707 2.323-0.841 3.703-0.101 1.055-0.112 2.020 0.045 2.973 0.056 0.303 0.145 0.605 0.259 0.897 0.393 1.032 1.156 1.896 2.704 1.683 0.595-0.079 1.077-0.315 1.581-0.528 0-0.987-0.023-2.020-0.020-2.78zM22.591 18.351c-0.071-0.644-0.123-1.426-0.145-2.215l-0.001-0.039c-0.033-1.044 0-2.053 0.056-3.096 0-0.011 0-0.011-0.011-0.011-0.404 0.315-0.864 0.64-1.301 0.953-0.067 0.041-0.123 0.094-0.167 0.156l-0.001 0.002c-0.005 0.040-0.008 0.087-0.008 0.135s0.003 0.094 0.009 0.14l-0.001-0.005c-0.011 1.504 0.079 3.096 0.112 4.443-0.371 0.157-0.74 0.359-1.111 0.505-0.115-1.070-0.239-2.641-0.333-4.22l-0.015-0.324c-0.493 0.168-0.943 0.371-1.425 0.549 0.101 0.74 0.201 1.448 0.269 2.132 0.124 1.088 0.18 2.176 0.191 3.265 0 0.315 0 0.628-0.023 0.943-0.045 0.661-0.033 1.335-0.079 1.997-0.101 1.279-0.089 2.648-0.089 3.86 0.259-0.112 0.505-0.259 0.763-0.381 0.259-0.112 0.505-0.247 0.752-0.393 0-0.483 0.023-0.864 0.033-1.279 0.045-1.581 0.089-2.905 0.033-4.308 0.427-0.201 0.853-0.404 1.301-0.595 0.303 1.807 0.909 3.388 1.459 5.004 0.46-0.348 0.853-0.763 1.291-1.144-0.245-0.624-0.525-1.476-0.767-2.343l-0.051-0.215c-0.339-1.016-0.6-2.207-0.734-3.436l-0.007-0.078zM26.035 13.301c0.259-0.101 0.493-0.259 0.74-0.381s0.483-0.259 0.719-0.404c-0.449-1.291-1.009-2.468-1.784-3.479-0.763-1.010-1.631-1.882-2.603-2.624l-0.033-0.024c0-0.023-0.033 0-0.033 0.011-0.228 0.282-0.453 0.597-0.66 0.924l-0.024 0.041c-0.045 0.079-0.201 0.28-0.191 0.359 0.067 0.089 0.145 0.168 0.236 0.236 0.089 0.089 0.18 0.157 0.247 0.224 0.404 0.415 0.74 0.785 1.111 1.235 0.056 0.067 0.191 0.213 0.191 0.28-0.024 0.136-0.059 0.256-0.106 0.371l0.004-0.012c-0.18 0.64-0.303 1.268-0.415 1.941-0.153 0.846-0.24 1.82-0.24 2.815 0 0.399 0.014 0.795 0.042 1.188l-0.003-0.053c0.101 1.403 0.371 2.671 0.673 3.904 0.145 0.605 0.325 1.212 0.549 1.795 0.168 0.437 0.336 0.875 0.528 1.268 0.067 0.135 0.101 0.292 0.213 0.393 0.381-0.493 0.785-0.965 1.156-1.459-0.561-0.999-0.943-2.221-1.235-3.489-0.102-0.381-0.185-0.839-0.233-1.307l-0.003-0.039c-0.168-1.829-0.236-3.815 0.259-5.543 0.393 0.572 0.696 1.189 0.895 1.831z"></path>
</symbol>
<symbol id="icon-imdb" viewBox="0 0 24 28">
<path d="M14.406 12.453v2.844c0 0.562 0.109 1.078-0.594 1.062v-4.828c0.688 0 0.594 0.359 0.594 0.922zM19.344 13.953v1.891c0 0.313 0.094 0.828-0.359 0.828-0.094 0-0.172-0.047-0.219-0.141-0.125-0.297-0.063-2.547-0.063-2.578 0-0.219-0.063-0.734 0.281-0.734 0.422 0 0.359 0.422 0.359 0.734zM2.812 17.641h1.906v-7.375h-1.906v7.375zM9.594 17.641h1.656v-7.375h-2.484l-0.438 3.453c-0.156-1.156-0.313-2.312-0.5-3.453h-2.469v7.375h1.672v-4.875l0.703 4.875h1.188l0.672-4.984v4.984zM16.234 12.875c0-0.469 0.016-0.969-0.078-1.406-0.25-1.297-1.813-1.203-2.828-1.203h-1.422v7.375c4.969 0 4.328 0.344 4.328-4.766zM21.187 15.953v-2.078c0-1-0.047-1.734-1.281-1.734-0.516 0-0.859 0.156-1.203 0.531v-2.406h-1.828v7.375h1.719l0.109-0.469c0.328 0.391 0.688 0.562 1.203 0.562 1.141 0 1.281-0.875 1.281-1.781zM24 4.5v19c0 1.375-1.125 2.5-2.5 2.5h-19c-1.375 0-2.5-1.125-2.5-2.5v-19c0-1.375 1.125-2.5 2.5-2.5h19c1.375 0 2.5 1.125 2.5 2.5z"></path>
</symbol>
<symbol id="icon-chevron-left" viewBox="0 0 20 20">
<path d="M12.452 4.516c0.446 0.436 0.481 1.043 0 1.576l-3.747 3.908 3.747 3.908c0.481 0.533 0.446 1.141 0 1.574-0.445 0.436-1.197 0.408-1.615 0-0.418-0.406-4.502-4.695-4.502-4.695-0.223-0.217-0.335-0.502-0.335-0.787s0.112-0.57 0.335-0.789c0 0 4.084-4.287 4.502-4.695s1.17-0.436 1.615 0z"></path>
</symbol>
<symbol id="icon-chevron-right" viewBox="0 0 20 20">
<path d="M9.163 4.516c0.418 0.408 4.502 4.695 4.502 4.695 0.223 0.219 0.335 0.504 0.335 0.789s-0.112 0.57-0.335 0.787c0 0-4.084 4.289-4.502 4.695-0.418 0.408-1.17 0.436-1.615 0-0.446-0.434-0.481-1.041 0-1.574l3.747-3.908-3.747-3.908c-0.481-0.533-0.446-1.141 0-1.576s1.197-0.409 1.615 0z"></path>
</symbol>
<symbol id="icon-chevron-thin-down" viewBox="0 0 20 20">
<path d="M17.418 6.109c0.272-0.268 0.709-0.268 0.979 0s0.271 0.701 0 0.969l-7.908 7.83c-0.27 0.268-0.707 0.268-0.979 0l-7.908-7.83c-0.27-0.268-0.27-0.701 0-0.969s0.709-0.268 0.979 0l7.419 7.141 7.418-7.141z"></path>
</symbol>
<symbol id="icon-chevron-thin-left" viewBox="0 0 20 20">
<path d="M13.891 17.418c0.268 0.272 0.268 0.709 0 0.979s-0.701 0.271-0.969 0l-7.83-7.908c-0.268-0.27-0.268-0.707 0-0.979l7.83-7.908c0.268-0.27 0.701-0.27 0.969 0s0.268 0.709 0 0.979l-7.141 7.419 7.141 7.418z"></path>
</symbol>
<symbol id="icon-chevron-thin-right" viewBox="0 0 20 20">
<path d="M13.25 10l-7.141-7.42c-0.268-0.27-0.268-0.707 0-0.979 0.268-0.27 0.701-0.27 0.969 0l7.83 7.908c0.268 0.271 0.268 0.709 0 0.979l-7.83 7.908c-0.268 0.271-0.701 0.27-0.969 0s-0.268-0.707 0-0.979l7.141-7.417z"></path>
</symbol>
<symbol id="icon-soundcloud" viewBox="0 0 20 20">
<path d="M0.672 13.055l0.328-1.401-0.328-1.447c-0.009-0.043-0.092-0.076-0.191-0.076-0.102 0-0.184 0.033-0.191 0.076l-0.29 1.447 0.289 1.4c0.008 0.045 0.090 0.076 0.191 0.076s0.183-0.030 0.192-0.075zM2.723 13.832l0.277-2.164-0.277-3.348c-0.009-0.084-0.114-0.152-0.239-0.152-0.127 0-0.233 0.068-0.238 0.152l-0.246 3.348 0.246 2.164c0.006 0.086 0.111 0.152 0.238 0.152 0.125 0 0.23-0.066 0.239-0.152zM4.768 13.797l0.232-2.127-0.232-4.457c-0.006-0.106-0.129-0.188-0.282-0.188s-0.275 0.082-0.281 0.188l-0.205 4.457 0.205 2.129c0.006 0.103 0.129 0.186 0.281 0.186 0.153-0.001 0.276-0.083 0.282-0.188zM6.81 13.766l0.19-2.096-0.19-4.49c-0.005-0.123-0.146-0.221-0.32-0.221-0.176 0-0.316 0.098-0.321 0.221l-0.169 4.49 0.17 2.096c0.004 0.123 0.145 0.221 0.32 0.221s0.315-0.096 0.32-0.221zM8.85 13.738l0.15-2.066-0.15-5.149c-0.004-0.142-0.164-0.255-0.358-0.255s-0.354 0.115-0.357 0.256l-0.135 5.146 0.135 2.068c0.003 0.141 0.163 0.256 0.357 0.256s0.354-0.113 0.358-0.256zM10.277 13.996c0.008 0 7.1 0.004 7.145 0.004 1.424 0 2.578-1.117 2.578-2.494s-1.154-2.492-2.578-2.492c-0.353 0-0.689 0.070-0.996 0.193-0.205-2.246-2.153-4.008-4.529-4.008-0.581 0-1.148 0.111-1.648 0.297-0.196 0.074-0.247 0.148-0.249 0.295v7.91c0.002 0.153 0.124 0.279 0.277 0.295z"></path>
</symbol>
<symbol id="icon-vimeo" viewBox="0 0 20 20">
<path d="M18.91 5.84c-1.006 5.773-6.625 10.66-8.315 11.777-1.69 1.115-3.233-0.447-3.792-1.631-0.641-1.347-2.559-8.656-3.062-9.261s-2.010 0.605-2.010 0.605l-0.731-0.976c0 0 3.061-3.725 5.391-4.191 2.47-0.493 2.466 3.864 3.060 6.282 0.574 2.342 0.961 3.68 1.463 3.68s1.462-1.305 2.512-3.305c1.053-2.004-0.045-3.772-2.101-2.514 0.823-5.027 8.591-6.236 7.585-0.466z"></path>
</symbol>
<symbol id="icon-play3" viewBox="0 0 32 32">
<path d="M6 4l20 12-20 12z"></path>
</symbol>
<symbol id="icon-pause2" viewBox="0 0 32 32">
<path d="M4 4h10v24h-10zM18 4h10v24h-10z"></path>
</symbol>
<symbol id="icon-volume-medium" viewBox="0 0 32 32">
<path d="M22.485 25.985c-0.384 0-0.768-0.146-1.061-0.439-0.586-0.586-0.586-1.535 0-2.121 4.094-4.094 4.094-10.755 0-14.849-0.586-0.586-0.586-1.536 0-2.121s1.536-0.586 2.121 0c2.55 2.55 3.954 5.94 3.954 9.546s-1.404 6.996-3.954 9.546c-0.293 0.293-0.677 0.439-1.061 0.439v0zM17.157 23.157c-0.384 0-0.768-0.146-1.061-0.439-0.586-0.586-0.586-1.535 0-2.121 2.534-2.534 2.534-6.658 0-9.192-0.586-0.586-0.586-1.536 0-2.121s1.535-0.586 2.121 0c3.704 3.704 3.704 9.731 0 13.435-0.293 0.293-0.677 0.439-1.061 0.439z"></path>
<path d="M13 30c-0.26 0-0.516-0.102-0.707-0.293l-7.707-7.707h-3.586c-0.552 0-1-0.448-1-1v-10c0-0.552 0.448-1 1-1h3.586l7.707-7.707c0.286-0.286 0.716-0.372 1.090-0.217s0.617 0.519 0.617 0.924v26c0 0.404-0.244 0.769-0.617 0.924-0.124 0.051-0.254 0.076-0.383 0.076z"></path>
</symbol>
<symbol id="icon-graduation-cap" viewBox="0 0 20 20">
<path d="M3.302 12.238c0.464 1.879 1.054 2.701 3.022 3.562 1.969 0.86 2.904 1.8 3.676 1.8s1.648-0.822 3.616-1.684c1.969-0.861 1.443-1.123 1.907-3.002l-5.523 2.686-6.698-3.362zM19.511 7.336l-8.325-4.662c-0.652-0.365-1.72-0.365-2.372 0l-8.326 4.662c-0.652 0.365-0.652 0.963 0 1.328l8.325 4.662c0.652 0.365 1.72 0.365 2.372 0l5.382-3.014-5.836-1.367c-0.225 0.055-0.472 0.086-0.731 0.086-1.052 0-1.904-0.506-1.904-1.131 0-0.627 0.853-1.133 1.904-1.133 0.816 0 1.51 0.307 1.78 0.734l6.182 2.029 1.549-0.867c0.651-0.364 0.651-0.962 0-1.327zM16.967 16.17c-0.065 0.385 1.283 1.018 1.411-0.107 0.579-5.072-0.416-6.531-0.416-6.531l-1.395 0.781c0-0.001 1.183 1.125 0.4 5.857z"></path>
</symbol>
<symbol id="icon-radio" viewBox="0 0 20 20">
<path d="M17 8h-11.979l8.974-5.265-0.995-1.735-11.264 6.571c-0.456 0.266-0.736 0.753-0.736 1.281v8.148c0 1.105 0.895 2 2 2h14c1.105 0 2-0.895 2-2v-7c0-1.105-0.895-2-2-2zM15.5 17c-0.828 0-1.5-0.672-1.5-1.5s0.672-1.5 1.5-1.5 1.5 0.672 1.5 1.5c0 0.828-0.672 1.5-1.5 1.5zM17 12h-14v-2h14v2z"></path>
</symbol>
<symbol id="icon-headphones" viewBox="0 0 32 32">
<path d="M9 18h-2v14h2c0.55 0 1-0.45 1-1v-12c0-0.55-0.45-1-1-1z"></path>
<path d="M23 18c-0.55 0-1 0.45-1 1v12c0 0.55 0.45 1 1 1h2v-14h-2z"></path>
<path d="M32 16c0-8.837-7.163-16-16-16s-16 7.163-16 16c0 1.919 0.338 3.759 0.958 5.464-0.609 1.038-0.958 2.246-0.958 3.536 0 3.526 2.608 6.443 6 6.929v-13.857c-0.997 0.143-1.927 0.495-2.742 1.012-0.168-0.835-0.258-1.699-0.258-2.584 0-7.18 5.82-13 13-13s13 5.82 13 13c0 0.885-0.088 1.749-0.257 2.584-0.816-0.517-1.745-0.87-2.743-1.013v13.858c3.392-0.485 6-3.402 6-6.929 0-1.29-0.349-2.498-0.958-3.536 0.62-1.705 0.958-3.545 0.958-5.465z"></path>
</symbol>
<symbol id="icon-video-camera" viewBox="0 0 32 32">
<path d="M12 9c0-2.761 2.239-5 5-5s5 2.239 5 5c0 2.761-2.239 5-5 5s-5-2.239-5-5zM0 9c0-2.761 2.239-5 5-5s5 2.239 5 5c0 2.761-2.239 5-5 5s-5-2.239-5-5zM24 19v-3c0-1.1-0.9-2-2-2h-20c-1.1 0-2 0.9-2 2v10c0 1.1 0.9 2 2 2h20c1.1 0 2-0.9 2-2v-3l8 5v-14l-8 5zM20 24h-16v-6h16v6z"></path>
</symbol>
<symbol id="icon-pencil" viewBox="0 0 32 32">
<path d="M12 20l4-2 14-14-2-2-14 14-2 4zM9.041 27.097c-0.989-2.085-2.052-3.149-4.137-4.137l3.097-8.525 4-2.435 12-12h-6l-12 12-6 20 20-6 12-12v-6l-12 12-2.435 4z"></path>
</symbol>
<symbol id="icon-star-full" viewBox="0 0 32 32">
<path d="M32 12.408l-11.056-1.607-4.944-10.018-4.944 10.018-11.056 1.607 8 7.798-1.889 11.011 9.889-5.199 9.889 5.199-1.889-11.011 8-7.798z"></path>
</symbol>
<symbol id="icon-bullhorn" viewBox="0 0 32 32">
<path d="M32 13.414c0-6.279-1.837-11.373-4.109-11.413 0.009-0 0.018-0.001 0.027-0.001h-2.592c0 0-6.088 4.573-14.851 6.367-0.268 1.415-0.438 3.102-0.438 5.047s0.171 3.631 0.438 5.047c8.763 1.794 14.851 6.367 14.851 6.367h2.592c-0.009 0-0.018-0.001-0.027-0.001 2.272-0.040 4.109-5.134 4.109-11.413zM27.026 23.102c-0.293 0-0.61-0.304-0.773-0.486-0.395-0.439-0.775-1.124-1.1-1.979-0.727-1.913-1.127-4.478-1.127-7.223s0.4-5.309 1.127-7.223c0.325-0.855 0.705-1.54 1.1-1.979 0.163-0.182 0.48-0.486 0.773-0.486s0.61 0.304 0.773 0.486c0.395 0.439 0.775 1.124 1.1 1.979 0.727 1.913 1.127 4.479 1.127 7.223s-0.4 5.309-1.127 7.223c-0.325 0.855-0.705 1.54-1.1 1.979-0.163 0.181-0.48 0.486-0.773 0.486zM7.869 13.414c0-1.623 0.119-3.201 0.345-4.659-1.48 0.205-2.779 0.323-4.386 0.323-2.096 0-2.096 0-2.096 0l-1.733 2.959v2.755l1.733 2.959c0 0 0 0 2.096 0 1.606 0 2.905 0.118 4.386 0.323-0.226-1.458-0.345-3.036-0.345-4.659zM11.505 20.068l-4-0.766 2.558 10.048c0.132 0.52 0.648 0.782 1.146 0.583l3.705-1.483c0.498-0.199 0.698-0.749 0.444-1.221l-3.853-7.161zM27.026 17.148c-0.113 0-0.235-0.117-0.298-0.187-0.152-0.169-0.299-0.433-0.424-0.763-0.28-0.738-0.434-1.726-0.434-2.784s0.154-2.046 0.434-2.784c0.125-0.33 0.272-0.593 0.424-0.763 0.063-0.070 0.185-0.187 0.298-0.187s0.235 0.117 0.298 0.187c0.152 0.169 0.299 0.433 0.424 0.763 0.28 0.737 0.434 1.726 0.434 2.784s-0.154 2.046-0.434 2.784c-0.125 0.33-0.272 0.593-0.424 0.763-0.063 0.070-0.185 0.187-0.298 0.187z"></path>
</symbol>
<!-- //// OTHER SOURCES //// -->
<symbol id="icon-videogames" viewBox="0 0 500 500">
<path  d="M436.161,165.291c-38.291-78.37-79.318-83.845-117.516-65.166c-11.446,5.598-21.283,12.768-28.5,22.115H187.38 c-7.208-9.347-17.046-16.517-28.492-22.115C120.69,81.446,79.664,86.921,41.373,165.291C3.05,243.645-18.007,365.237,20.19,383.915 c23.481,11.472,63.875-18.681,100.418-61.776c10.48,19.3,30.926,32.402,54.431,32.402c30.166,0,55.278-21.584,60.77-50.148h5.9 c5.491,28.564,30.604,50.148,60.77,50.148c23.396,0,43.755-12.984,54.279-32.135c38.942,44.139,78.89,72.1,100.556,61.509 C495.541,365.237,474.451,243.645,436.161,165.291z M132.775,236.974c0,0.699-0.217,1.336-0.397,1.975 c-0.731,2.612-2.752,4.556-5.404,5.21c-0.569,0.124-1.113,0.342-1.727,0.342h-5.467h-19.293c-4.16,0-7.528-3.375-7.528-7.527 v-15.197H77.749c-4.16,0-7.526-3.375-7.526-7.527v-24.76c0-4.152,3.367-7.528,7.526-7.528H92.96v-15.225 c0-4.152,3.368-7.528,7.528-7.528h19.293h5.467c4.16,0,7.527,3.376,7.527,7.528v15.225h15.211c4.16,0,7.528,3.376,7.528,7.528v24.76 c0,4.152-3.368,7.527-7.528,7.527h-15.211V236.974z M175.039,329.971c-20.615,0-37.327-16.712-37.327-37.327 c0-20.615,16.712-37.328,37.327-37.328c20.615,0,37.327,16.712,37.327,37.328C212.367,313.259,195.654,329.971,175.039,329.971z M302.479,329.971c-20.616,0-37.328-16.712-37.328-37.327c0-20.615,16.712-37.328,37.328-37.328 c20.615,0,37.328,16.712,37.328,37.328C339.806,313.259,323.094,329.971,302.479,329.971z M337.153,216.195 c-7.907,0-14.308-6.425-14.308-14.34c0-7.885,6.401-14.31,14.308-14.31c7.917,0,14.317,6.425,14.317,14.31 C351.47,209.771,345.069,216.195,337.153,216.195z M371.89,244.657c-1.626,0.637-3.367,1.058-5.217,1.058 c-0.296,0-0.545-0.156-0.841-0.172c-6.671-0.404-11.882-5.333-12.994-11.788c-0.132-0.793-0.475-1.524-0.475-2.363 c0-7.901,6.393-14.324,14.31-14.324c1.85,0,3.591,0.419,5.217,1.058c5.311,2.083,9.091,7.216,9.091,13.266 C380.981,237.439,377.201,242.556,371.89,244.657z M371.89,185.618c-1.626,0.639-3.367,1.057-5.217,1.057 c-7.917,0-14.31-6.423-14.31-14.324c0-7.901,6.393-14.324,14.31-14.324c1.85,0,3.591,0.42,5.217,1.058 c5.311,2.085,9.091,7.217,9.091,13.266C380.981,178.401,377.201,183.519,371.89,185.618z M396.191,216.195 c-7.917,0-14.309-6.425-14.309-14.34c0-7.885,6.393-14.31,14.309-14.31c7.915,0,14.308,6.425,14.308,14.31 C410.499,209.771,404.107,216.195,396.191,216.195z"></path></symbol>

<symbol id="icon-theatre" viewBox="0 0 650 650">
<path d="M206.86 245.15c-35.88 10.45-59.95 41.2-57.53 74.1 11.4-12.72 28.81-23.7 49.9-30.92l7.63-43.18zM95.81 295L64.08 115.49c-.29-1.62.28-2.62.24-2.65 57.76-32.06 123.12-49.01 189.01-49.01 1.61 0 3.23.17 4.85.19 13.95-13.47 31.73-22.83 51.59-26 18.89-3.02 38.05-4.55 57.18-5.32-9.99-13.95-24.48-24.23-41.77-27C301.27 1.89 277.24 0 253.32 0 176.66 0 101.02 19.42 33.2 57.06 9.03 70.48-3.92 98.48 1.05 126.58l31.73 179.51c14.23 80.52 136.33 142.08 204.45 142.08 3.59 0 6.75-.46 10.01-.8-13.52-17.08-28.94-40.48-39.5-67.58-47.61-12.98-106.06-51.62-111.93-84.79zm97.55-137.46c-.73-4.12-2.23-7.87-4.07-11.4-8.25 8.91-20.67 15.75-35.32 18.32-14.65 2.58-28.67.4-39.48-5.17-.52 3.94-.64 7.98.09 12.1 3.84 21.7 24.58 36.19 46.34 32.37 21.75-3.82 36.28-24.52 32.44-46.22zM606.8 120.9c-88.98-49.38-191.43-67.41-291.98-51.35-27.31 4.36-49.08 26.26-54.04 54.36l-31.73 179.51c-15.39 87.05 95.28 196.27 158.31 207.35 63.03 11.09 204.47-53.79 219.86-140.84l31.73-179.51c4.97-28.11-7.98-56.11-32.15-69.52zm-273.24 96.8c3.84-21.7 24.58-36.19 46.34-32.36 21.76 3.83 36.28 24.52 32.45 46.22-.73 4.12-2.23 7.87-4.07 11.4-8.25-8.91-20.67-15.75-35.32-18.32-14.65-2.58-28.67-.4-39.48 5.17-.53-3.95-.65-7.99.08-12.11zm70.47 198.76c-55.68-9.79-93.52-59.27-89.04-112.9 20.6 25.54 56.21 46.17 99.49 53.78 43.28 7.61 83.82.37 111.93-16.6-14.18 51.94-66.71 85.51-122.38 75.72zm130.3-151.34c-8.25-8.91-20.68-15.75-35.33-18.32-14.65-2.58-28.67-.4-39.48 5.17-.52-3.94-.64-7.98.09-12.1 3.84-21.7 24.58-36.19 46.34-32.37 21.75 3.83 36.28 24.52 32.45 46.22-.73 4.13-2.23 7.88-4.07 11.4z"></path></symbol>
</defs>
</svg>
